<svg viewBox="0 0 900 560" xmlns="http://www.w3.org/2000/svg" role="img" aria-label="N-Queens visualizer: a valid 8-queens solution on the board, with the solution counter reading 92">
  <rect width="900" height="560" fill="#fbf4ee"/>

  <text x="40" y="52" font-family="Georgia, serif" font-size="28" font-weight="700" fill="#362a26">N-Queens</text>
  <text x="40" y="78" font-family="system-ui, sans-serif" font-size="14" fill="#725f57">Backtracking — place, conflict-check, and backtrack, one row at a time.</text>

  <!-- board panel -->
  <rect x="40" y="108" width="420" height="420" rx="18" fill="#fffbf8" stroke="#ecdcd3" stroke-width="1.5"/>

  <!-- 8x8 board, 44px squares, origin (68,136) -->
  <g>
    <rect x="68"  y="136" width="44" height="44" fill="#fbf3ec"/>
    <rect x="112" y="136" width="44" height="44" fill="#e8d3c3"/>
    <rect x="156" y="136" width="44" height="44" fill="#fbf3ec"/>
    <rect x="200" y="136" width="44" height="44" fill="#e8d3c3"/>
    <rect x="244" y="136" width="44" height="44" fill="#fbf3ec"/>
    <rect x="288" y="136" width="44" height="44" fill="#e8d3c3"/>
    <rect x="332" y="136" width="44" height="44" fill="#fbf3ec"/>
    <rect x="376" y="136" width="44" height="44" fill="#e8d3c3"/>

    <rect x="68"  y="180" width="44" height="44" fill="#e8d3c3"/>
    <rect x="112" y="180" width="44" height="44" fill="#fbf3ec"/>
    <rect x="156" y="180" width="44" height="44" fill="#e8d3c3"/>
    <rect x="200" y="180" width="44" height="44" fill="#fbf3ec"/>
    <rect x="244" y="180" width="44" height="44" fill="#e8d3c3"/>
    <rect x="288" y="180" width="44" height="44" fill="#fbf3ec"/>
    <rect x="332" y="180" width="44" height="44" fill="#e8d3c3"/>
    <rect x="376" y="180" width="44" height="44" fill="#fbf3ec"/>

    <rect x="68"  y="224" width="44" height="44" fill="#fbf3ec"/>
    <rect x="112" y="224" width="44" height="44" fill="#e8d3c3"/>
    <rect x="156" y="224" width="44" height="44" fill="#fbf3ec"/>
    <rect x="200" y="224" width="44" height="44" fill="#e8d3c3"/>
    <rect x="244" y="224" width="44" height="44" fill="#fbf3ec"/>
    <rect x="288" y="224" width="44" height="44" fill="#e8d3c3"/>
    <rect x="332" y="224" width="44" height="44" fill="#fbf3ec"/>
    <rect x="376" y="224" width="44" height="44" fill="#e8d3c3"/>

    <rect x="68"  y="268" width="44" height="44" fill="#e8d3c3"/>
    <rect x="112" y="268" width="44" height="44" fill="#fbf3ec"/>
    <rect x="156" y="268" width="44" height="44" fill="#e8d3c3"/>
    <rect x="200" y="268" width="44" height="44" fill="#fbf3ec"/>
    <rect x="244" y="268" width="44" height="44" fill="#e8d3c3"/>
    <rect x="288" y="268" width="44" height="44" fill="#fbf3ec"/>
    <rect x="332" y="268" width="44" height="44" fill="#e8d3c3"/>
    <rect x="376" y="268" width="44" height="44" fill="#fbf3ec"/>

    <rect x="68"  y="312" width="44" height="44" fill="#fbf3ec"/>
    <rect x="112" y="312" width="44" height="44" fill="#e8d3c3"/>
    <rect x="156" y="312" width="44" height="44" fill="#fbf3ec"/>
    <rect x="200" y="312" width="44" height="44" fill="#e8d3c3"/>
    <rect x="244" y="312" width="44" height="44" fill="#fbf3ec"/>
    <rect x="288" y="312" width="44" height="44" fill="#e8d3c3"/>
    <rect x="332" y="312" width="44" height="44" fill="#fbf3ec"/>
    <rect x="376" y="312" width="44" height="44" fill="#e8d3c3"/>

    <rect x="68"  y="356" width="44" height="44" fill="#e8d3c3"/>
    <rect x="112" y="356" width="44" height="44" fill="#fbf3ec"/>
    <rect x="156" y="356" width="44" height="44" fill="#e8d3c3"/>
    <rect x="200" y="356" width="44" height="44" fill="#fbf3ec"/>
    <rect x="244" y="356" width="44" height="44" fill="#e8d3c3"/>
    <rect x="288" y="356" width="44" height="44" fill="#fbf3ec"/>
    <rect x="332" y="356" width="44" height="44" fill="#e8d3c3"/>
    <rect x="376" y="356" width="44" height="44" fill="#fbf3ec"/>

    <rect x="68"  y="400" width="44" height="44" fill="#fbf3ec"/>
    <rect x="112" y="400" width="44" height="44" fill="#e8d3c3"/>
    <rect x="156" y="400" width="44" height="44" fill="#fbf3ec"/>
    <rect x="200" y="400" width="44" height="44" fill="#e8d3c3"/>
    <rect x="244" y="400" width="44" height="44" fill="#fbf3ec"/>
    <rect x="288" y="400" width="44" height="44" fill="#e8d3c3"/>
    <rect x="332" y="400" width="44" height="44" fill="#fbf3ec"/>
    <rect x="376" y="400" width="44" height="44" fill="#e8d3c3"/>

    <rect x="68"  y="444" width="44" height="44" fill="#e8d3c3"/>
    <rect x="112" y="444" width="44" height="44" fill="#fbf3ec"/>
    <rect x="156" y="444" width="44" height="44" fill="#e8d3c3"/>
    <rect x="200" y="444" width="44" height="44" fill="#fbf3ec"/>
    <rect x="244" y="444" width="44" height="44" fill="#e8d3c3"/>
    <rect x="288" y="444" width="44" height="44" fill="#fbf3ec"/>
    <rect x="332" y="444" width="44" height="44" fill="#e8d3c3"/>
    <rect x="376" y="444" width="44" height="44" fill="#fbf3ec"/>
  </g>

  <!-- queens: board = [0,4,7,5,2,6,1,3], row r at y=136+44r+22, col c at x=68+44c+22 -->
  <g font-size="30" text-anchor="middle" fill="#b04f6f">
    <text x="90"  y="168">&#9819;</text>
    <text x="266" y="212">&#9819;</text>
    <text x="398" y="256">&#9819;</text>
    <text x="310" y="300">&#9819;</text>
    <text x="178" y="344">&#9819;</text>
    <text x="354" y="388">&#9819;</text>
    <text x="134" y="432">&#9819;</text>
    <text x="222" y="476">&#9819;</text>
  </g>

  <!-- side panel -->
  <g transform="translate(500,108)">
    <rect width="360" height="100" rx="14" fill="#f9ede6" stroke="#ecdcd3"/>
    <text x="24" y="34" font-family="system-ui, sans-serif" font-size="13" fill="#725f57">Solutions found</text>
    <text x="24" y="78" font-family="ui-monospace, monospace" font-size="40" font-weight="700" fill="#b04f6f">92</text>

    <rect y="120" width="360" height="100" rx="14" fill="#f9ede6" stroke="#ecdcd3"/>
    <text x="24" y="154" font-family="system-ui, sans-serif" font-size="13" fill="#725f57">Board size</text>
    <text x="24" y="198" font-family="ui-monospace, monospace" font-size="40" font-weight="700" fill="#362a26">8 &#215; 8</text>

    <rect y="240" width="360" height="100" rx="14" fill="#f9ede6" stroke="#ecdcd3"/>
    <text x="24" y="274" font-family="system-ui, sans-serif" font-size="13" fill="#725f57">Time complexity</text>
    <text x="24" y="318" font-family="ui-monospace, monospace" font-size="40" font-weight="700" fill="#4f7d72">O(N!)</text>
  </g>
</svg>
